<svg viewBox="0 0 32 32" xmlns="http://www.w3.org/2000/svg"><path d="m6 21v-1h-2v1a7 7 0 0 0 7 7h3v-2h-3a5 5 0 0 1 -5-5z"/><path d="m24 11v1h2v-1a7 7 0 0 0 -7-7h-3v2h3a5 5 0 0 1 5 5z"/><path d="m11 11h-6a3 3 0 0 0 -3 3v2h2v-2a1 1 0 0 1 1-1h6a1 1 0 0 1 1 1v2h2v-2a3 3 0 0 0 -3-3z"/><path d="m8 10a4 4 0 1 0 -4-4 4 4 0 0 0 4 4zm0-6a2 2 0 1 1 -2 2 2 2 0 0 1 2-2z"/><path d="m27 25h-6a3 3 0 0 0 -3 3v2h2v-2a1 1 0 0 1 1-1h6a1 1 0 0 1 1 1v2h2v-2a3 3 0 0 0 -3-3z"/><path d="m20 20a4 4 0 1 0 4-4 4 4 0 0 0 -4 4zm6 0a2 2 0 1 1 -2-2 2 2 0 0 1 2 2z"/><path d="m0 0h32v32h-32z" fill="none"/></svg>